PathFileType	4	(X/Y/Z)	/Users/niels/Desktop/University/Third Semester/Perception and Action/Exam/Gymnastics Motion Tracking/Code for Gym Tracking/Analyzed Data/Webcam_Backflip/temp_id5_4_baseline_Sports2D/temp_id5_4_baseline_Sports2D_px_person00.trc
DataRate	CameraRate	NumFrames	NumMarkers	Units	OrigDataRate	OrigDataStartFrame	OrigNumFrames
29.810126582278482	29.810126582278482	11	22	m	29.810126582278482	98	158
Frame#	Time	Hip			RHip			RKnee			RAnkle			RBigToe			RSmallToe			RHeel			LHip			LKnee			LAnkle			LBigToe			LSmallToe			LHeel			Neck			Head			Nose			RShoulder			RElbow			RWrist			LShoulder			LElbow			LWrist		
		X1	Y1	Z1	X2	Y2	Z2	X3	Y3	Z3	X4	Y4	Z4	X5	Y5	Z5	X6	Y6	Z6	X7	Y7	Z7	X8	Y8	Z8	X9	Y9	Z9	X10	Y10	Z10	X11	Y11	Z11	X12	Y12	Z12	X13	Y13	Z13	X14	Y14	Z14	X15	Y15	Z15	X16	Y16	Z16	X17	Y17	Z17	X18	Y18	Z18	X19	Y19	Z19	X20	Y20	Z20	X21	Y21	Z21	X22	Y22	Z22
98	3.2874734607218685	0.6905888471241461	-0.5524042840681528	0.0	0.6767329048826319	-0.551622379919376	0.0	0.6994070780609899	-0.6668007315531695	0.0	0.6515707902456117	-0.7838623722502058	0.0	0.6828762485675957	-0.8138752658258803	0.0	0.6667574393137005	-0.8136081721441566	0.0	0.6373569755516447	-0.7986346863007412	0.0	0.7062582563986572	-0.5498627406588924	0.0	0.7013906743534658	-0.6692050609986819	0.0	0.670168974073702	-0.7767104007007776	0.0	0.7058489422580014	-0.8008209262760837	0.0	0.7046525976140692	-0.7958850297074628	0.0	0.6628706688820868	-0.7921670275244227	0.0	0.6709484981264481	-0.3983779388111723	0.0	0.6703816837803477	-0.3229846038860829	0.0	0.6950325772985225	-0.3575932845869814	0.0	0.6363066432822666	-0.422229908882906	0.0	0.6153689840451063	-0.49433433506582586	0.0	0.6201528718751899	-0.5533067178600799	0.0	0.7061157240222844	-0.4134515845186488	0.0	0.7204065505119766	-0.47970186027774053	0.0	0.7443711001383373	-0.5316881789304118	0.0
99	3.3210191082802547	0.6907268783669882	-0.5589963871581143	0.0	0.675868564411732	-0.5576635347926564	0.0	0.6876180198288877	-0.6747315905744996	0.0	0.6453570330320488	-0.7922985249879425	0.0	0.6754943335388794	-0.8198020006936044	0.0	0.659198386831618	-0.8192742913186174	0.0	0.6324699207302873	-0.806639820999366	0.0	0.7076694608701131	-0.5560269594038896	0.0	0.7030970554384909	-0.6747109348973722	0.0	0.6703661859226091	-0.7810336669873874	0.0	0.7060724574035039	-0.8033226668915496	0.0	0.7053249805779418	-0.7982110623210118	0.0	0.6627664569538557	-0.7967664101545462	0.0	0.6717787698946074	-0.4029175734928713	0.0	0.6723703433900975	-0.3266220130363064	0.0	0.6965462084155518	-0.3617497836778497	0.0	0.6373278353762213	-0.42566811263286003	0.0	0.6142093929080094	-0.4970237299971207	0.0	0.6130523834833912	-0.5581090088057707	0.0	0.7064517795025463	-0.41903868387459425	0.0	0.7183142527672243	-0.4850194086373988	0.0	0.7403369368434262	-0.5372841870172484	0.0
100	3.3545647558386413	0.6904107771139208	-0.5674677271628231	0.0	0.6745509583093645	-0.5658676068176055	0.0	0.6780025826309187	-0.6833939378708404	0.0	0.6420438517733207	-0.8009612546856478	0.0	0.6722481413757341	-0.8253564775336063	0.0	0.656201820155928	-0.8248537765825987	0.0	0.6306564257799768	-0.8147319747412474	0.0	0.7084281119335626	-0.5644093103173369	0.0	0.7041362434758331	-0.6819808463581798	0.0	0.6705923503972562	-0.7868038167360032	0.0	0.7071237861664281	-0.8069707661251609	0.0	0.7064551432928011	-0.8018095182828668	0.0	0.6625755096999659	-0.8023580205183712	0.0	0.672939145594997	-0.4090489400536497	0.0	0.6746533410137642	-0.3323073671150336	0.0	0.698479568547244	-0.3678433565099603	0.0	0.6385355592877108	-0.43100788702399456	0.0	0.6136955418595691	-0.5017324414959091	0.0	0.606968743205235	-0.5649128554578456	0.0	0.706983303880514	-0.42660559392772013	0.0	0.7170780785908134	-0.4928999910423835	0.0	0.740157019897988	-0.5451080775595637	0.0
101	3.3881104033970275	0.6896970060355051	-0.5766185760910091	0.0	0.6729437771805126	-0.5750294252356276	0.0	0.671217924099438	-0.6921779494988844	0.0	0.6407489082682811	-0.8092144274804973	0.0	0.6722787984098333	-0.8300689611273617	0.0	0.6568138568779083	-0.8299369715761713	0.0	0.6306882341760174	-0.822247092002286	0.0	0.7085451235882745	-0.5738349674903903	0.0	0.7046646039094429	-0.6900584504511971	0.0	0.6708355998605765	-0.7932272994287486	0.0	0.708523889646962	-0.8114532888032058	0.0	0.7077933652531639	-0.8063630810609949	0.0	0.6624436088708285	-0.8081824715950822	0.0	0.6744286424519177	-0.41598523089260653	0.0	0.6769387323041973	-0.33934047344937507	0.0	0.7007276405265157	-0.37507276993356004	0.0	0.6399382426876686	-0.43749724956174774	0.0	0.6137229097124411	-0.5078489735407599	0.0	0.6021046160532025	-0.5729462576561817	0.0	0.7077284423697078	-0.435241395928144	0.0	0.7166122435484187	-0.5027544312755838	0.0	0.7428187113060741	-0.555281552816596	0.0
102	3.421656050955414	0.6887939074109529	-0.5853064440791216	0.0	0.6713393792138392	-0.5838878781919866	0.0	0.6673958547168791	-0.7004383292399531	0.0	0.6406714128857471	-0.8165625777568222	0.0	0.6743928594855005	-0.8336402887240791	0.0	0.6596795278499803	-0.8341842447224659	0.0	0.6315251130177092	-0.8287254302829414	0.0	0.7082077121286169	-0.5830415159784631	0.0	0.7051603136895106	-0.6979307875538396	0.0	0.6710697765989639	-0.7993469848482262	0.0	0.7099355417899073	-0.81620648502198	0.0	0.7090978930851993	-0.8112890844471278	0.0	0.6624367895524294	-0.8134609144140792	0.0	0.6761580579471215	-0.4229119964795684	0.0	0.6790297712815091	-0.3467679986192265	0.0	0.7031438377489294	-0.38251844697409404	0.0	0.6415249040729566	-0.44430207963355006	0.0	0.6141057558937966	-0.5146118394047183	0.0	0.5985204366408491	-0.5813371573750451	0.0	0.7086711160391804	-0.44389031126492884	0.0	0.7167798889254645	-0.5134278287092559	0.0	0.7468100406426219	-0.5669593511113761	0.0
103	3.4552016985138003	0.687934386296518	-0.5926002367951642	0.0	0.6700265721437076	-0.5913786738334871	0.0	0.6662306363409249	-0.707483118532732	0.0	0.6412103035738185	-0.8225299295197886	0.0	0.6773296063751344	-0.8359116324993032	0.0	0.6633783866392423	-0.8372346565993591	0.0	0.6324666938871131	-0.8338203245937759	0.0	0.7076053007349963	-0.5909057518523837	0.0	0.7062797800176734	-0.7045559567794105	0.0	0.6712657140360753	-0.8041980913858903	0.0	0.7111718320403213	-0.8204911289692979	0.0	0.7101492782386308	-0.815780891689867	0.0	0.6625084768468847	-0.8174332472859939	0.0	0.6779481737018443	-0.4290416250782874	0.0	0.680841092126953	-0.3535517073333369	0.0	0.7055602821929386	-0.38919175873741724	0.0	0.6432430691154025	-0.45061039570151556	0.0	0.6146965362196373	-0.5211693649938697	0.0	0.5961802161228256	-0.5891512266714758	0.0	0.7097236086802282	-0.45146788809343386	0.0	0.7172976889527429	-0.5233786652477962	0.0	0.7504934365490464	-0.5785365174471402	0.0
104	3.488747346072187	0.6872890945337606	-0.5978326807913529	0.0	0.6692076382302684	-0.5967766287859549	0.0	0.6670509525994432	-0.712658357536472	0.0	0.6419433974421555	-0.8266898393654452	0.0	0.6800585294483057	-0.8368514993550382	0.0	0.6667732404965133	-0.8387776091607277	0.0	0.6331658543119753	-0.8372741233085256	0.0	0.7068895574620035	-0.5966014953653154	0.0	0.7086398089576336	-0.7089845749894781	0.0	0.6714288778080969	-0.8069661256248234	0.0	0.7121167889404866	-0.8235206497494634	0.0	0.7107644840346965	-0.8189615079301922	0.0	0.6625408086565677	-0.8194426211374664	0.0	0.6795765292991166	-0.4336749789930335	0.0	0.6824150372869463	-0.3587499628827333	0.0	0.7078306377173628	-0.3942080307875142	0.0	0.645003092005157	-0.4557149208459748	0.0	0.6154763657606565	-0.5266778582522221	0.0	0.5949840387962003	-0.5955579970890005	0.0	0.7107080149349965	-0.4570251694582342	0.0	0.7177738914776193	-0.5311215382185476	0.0	0.7524892028248129	-0.5882419775894805	0.0
105	3.522292993630573	0.6869933112634906	-0.6006150800845108	0.0	0.6689961544356433	-0.5997183582676856	0.0	0.6689758178636976	-0.7155052278371229	0.0	0.642593098288029	-0.8287894467712921	0.0	0.6819284817019252	-0.8366596786653824	0.0	0.6691469455634107	-0.8388215057497438	0.0	0.6335576875936392	-0.8389625052263046	0.0	0.706275142168917	-0.5996690677146552	0.0	0.7125782899953037	-0.7105782346964729	0.0	0.6716640893641763	-0.807071084168189	0.0	0.7126791930727593	-0.8246505553215442	0.0	0.7108769498311585	-0.8201160419149985	0.0	0.6624636834208733	-0.8190340639653018	0.0	0.6808727171249354	-0.43631402670634795	0.0	0.6839267182283657	-0.3616834121444659	0.0	0.7098571342355654	-0.39701247103176607	0.0	0.6466929682288156	-0.45908429206710677	0.0	0.616564232353716	-0.5304662949232051	0.0	0.5948355145705398	-0.6000163620263798	0.0	0.7114357979326359	-0.45993504713128147	0.0	0.7178371233355924	-0.5356700115652758	0.0	0.7520109803023254	-0.5947179297909042	0.0
106	3.5558386411889598	0.6872083082110376	-0.6008222744724085	0.0	0.6694432716290727	-0.6001442169085857	0.0	0.671155461721356	-0.7158809498923371	0.0	0.6430244037869326	-0.8288884082696211	0.0	0.682638100383964	-0.8358673054331367	0.0	0.6701165242604412	-0.8378931833093971	0.0	0.6337297853585303	-0.8390052800103384	0.0	0.7060842650867991	-0.5999815648014818	0.0	0.7180610156992194	-0.7091649998640636	0.0	0.6722303655817603	-0.8042726473102163	0.0	0.7128370445478571	-0.8235339299892528	0.0	0.7106278468531954	-0.8188678466757533	0.0	0.6623956305108927	-0.8160487857308472	0.0	0.681811236236526	-0.4367444100295946	0.0	0.6856263090901976	-0.3620428932526946	0.0	0.711610393646163	-0.3974657744757592	0.0	0.6482160539023855	-0.46039315030842454	0.0	0.6181684190715785	-0.5321650697404494	0.0	0.5957511681464822	-0.6023392685261522	0.0	0.7118296187428608	-0.4600108366137301	0.0	0.7172589479340458	-0.5367409180515774	0.0	0.7490317984090961	-0.5973737691491916	0.0
107	3.589384288747346	0.68809551481889	-0.5985790755062822	0.0	0.6705381887333078	-0.5982253961370573	0.0	0.6729968665297917	-0.7139565443235301	0.0	0.6432361794839383	-0.8273494175052376	0.0	0.6821529401302568	-0.8350657925805163	0.0	0.6695508175654952	-0.8367344918729207	0.0	0.633782274878546	-0.8377680298411156	0.0	0.7066407565794517	-0.5976727059625552	0.0	0.7247478421544097	-0.7050283694670696	0.0	0.6735390624710124	-0.7987962121428165	0.0	0.71279470511946	-0.82020246083345	0.0	0.7104387172640777	-0.815265826827609	0.0	0.6627254327873662	-0.8107012964827521	0.0	0.682542214409472	-0.43502137220695775	0.0	0.68772922345516	-0.3599009598086225	0.0	0.7131336896781122	-0.39576624926364845	0.0	0.6495628350925557	-0.4595190544417708	0.0	0.6205158743254189	-0.531725131495954	0.0	0.5979125447181338	-0.6026338346823857	0.0	0.711974570303969	-0.45749156025303006	0.0	0.716062159176905	-0.534689522690336	0.0	0.7442275843521217	-0.5964872716100342	0.0
108	3.6229299363057326	0.6897131926042895	-0.5942576769319798	0.0	0.6722008124886714	-0.5943381469746001	0.0	0.6742974314962401	-0.7101410778074715	0.0	0.6433238550760225	-0.8246240531269301	0.0	0.68068281423307	-0.8343857277085323	0.0	0.667636258987722	-0.8357089285681684	0.0	0.6337528649061782	-0.835653595442724	0.0	0.7081102190489431	-0.5931206596963251	0.0	0.7321195696081799	-0.6987545689405766	0.0	0.6760851947207812	-0.791319124317932	0.0	0.7131935390307024	-0.8150203043442331	0.0	0.7110551921451369	-0.8097354684581967	0.0	0.6640671812024321	-0.8035808605733918	0.0	0.683330207921087	-0.4314145847315399	0.0	0.6903361217935592	-0.35565220526890506	0.0	0.7145354158877821	-0.39231739523278314	0.0	0.6508513194324	-0.4565664383298238	0.0	0.6237932453969383	-0.5293512507987699	0.0	0.6016236699525749	-0.6011522684030892	0.0	0.7120951193268004	-0.4529155885375185	0.0	0.7145686094961231	-0.5302666290636745	0.0	0.738701881685532	-0.5929974085504751	0.0
